<svg xmlns="http://www.w3.org/2000/svg" width="109.386" height="157.998" viewBox="0 0 109.386 157.998"><g transform="translate(0)"><g transform="translate(0 116.961)"><path d="M0,130.843c0-8.292,6.27-13.955,14.36-13.955a12.351,12.351,0,0,1,11.286,6.594l-4.935,2.427a7.308,7.308,0,0,0-6.35-3.924c-4.893,0-8.454,3.763-8.454,8.859s3.56,8.859,8.454,8.859a7.231,7.231,0,0,0,6.35-3.924l4.935,2.388A12.428,12.428,0,0,1,14.36,144.8C6.27,144.8,0,139.135,0,130.843Z" transform="translate(0 -116.884)" fill="#58595b"/><path d="M22.305,130.847c0-8.131,5.945-13.955,14.076-13.955,8.17,0,14.116,5.824,14.116,13.955S44.551,144.8,36.381,144.8C28.25,144.8,22.305,138.977,22.305,130.847Zm22.288,0c0-5.057-3.237-8.859-8.212-8.859s-8.17,3.8-8.17,8.859c0,5.016,3.195,8.859,8.17,8.859S44.593,135.862,44.593,130.847Z" transform="translate(5.892 -116.887)" fill="#58595b"/><path d="M48.129,144.225V117.243H58.767c8.454,0,14.319,5.38,14.319,13.511s-5.865,13.471-14.319,13.471ZM67.22,130.751c0-4.772-2.912-8.454-8.454-8.454h-4.9v16.868h4.9A8.075,8.075,0,0,0,67.22,130.751Z" transform="translate(12.712 -116.794)" fill="#58595b"/><path d="M71.425,144.225V117.243H90.517V122.3H77.166V128H90.231v5.057H77.168v6.1H90.52v5.06Z" transform="translate(18.866 -116.794)" fill="#58595b"/><g transform="translate(0.835 32.836)"><path d="M7.056,149.262a4,4,0,0,1,4.155-4.1,3.586,3.586,0,0,1,3.183,1.781l-1.187.606a2.353,2.353,0,0,0-2-1.153,2.866,2.866,0,0,0,0,5.726,2.33,2.33,0,0,0,2-1.151l1.187.6a3.594,3.594,0,0,1-3.183,1.781,4,4,0,0,1-4.155-4.1Z" transform="translate(-7.055 -145.161)" fill="#5fb0be"/><path d="M13.311,149.263a3.93,3.93,0,0,1,4.05-4.1,4.1,4.1,0,1,1,0,8.2,3.929,3.929,0,0,1-4.05-4.1Zm6.677,0a2.636,2.636,0,1,0-1.242,2.474A2.633,2.633,0,0,0,19.987,149.263Z" transform="translate(-4.018 -145.161)" fill="#5fb0be"/><path d="M25.995,153.175l-4.132-5.654v5.654H20.472v-7.922H21.9l4.05,5.5v-5.5h1.391v7.922Z" transform="translate(-0.544 -145.119)" fill="#5fb0be"/><path d="M29.088,153.175v-6.7h-2.4v-1.222h6.188v1.222h-2.4v6.7Z" transform="translate(2.474 -145.119)" fill="#5fb0be"/><path d="M32.449,153.175v-7.922h5.426v1.222H33.837v2.056h3.956v1.222H33.837v2.2h4.039v1.222H32.449Z" transform="translate(5.27 -145.119)" fill="#5fb0be"/><path d="M44.707,153.175v-5.882l-2.436,5.879h-.592l-2.427-5.879v5.879H37.865v-7.919h1.959l2.149,5.214,2.161-5.214h1.958v7.922Z" transform="translate(7.899 -145.119)" fill="#5fb0be"/><path d="M45.345,153.174v-7.922h3.478a2.484,2.484,0,1,1,0,4.965H46.734v2.957Zm4.644-5.44a1.249,1.249,0,0,0-1.353-1.259h-1.9v2.518h1.9a1.249,1.249,0,0,0,1.355-1.259Z" transform="translate(11.53 -145.118)" fill="#5fb0be"/><path d="M50.768,149.3a4.051,4.051,0,1,1,4.05,4.1,3.93,3.93,0,0,1-4.05-4.1Zm6.674,0a2.636,2.636,0,1,0-1.242,2.473A2.631,2.631,0,0,0,57.441,149.3Z" transform="translate(14.164 -145.199)" fill="#5fb0be"/><path d="M62.455,153.172,60.7,150.215H59.318v2.957H57.927V145.25h3.48A2.4,2.4,0,0,1,64,147.732a2.221,2.221,0,0,1-1.876,2.328l1.934,3.112Zm.119-5.44a1.249,1.249,0,0,0-1.355-1.259h-1.9v2.518h1.9a1.249,1.249,0,0,0,1.355-1.259Z" transform="translate(17.637 -145.116)" fill="#5fb0be"/><path d="M69.575,153.175l-.582-1.519H65.354l-.582,1.519H63.2l3.112-7.922h1.735l3.108,7.922Zm-2.4-6.519-1.426,3.778H68.6Z" transform="translate(20.192 -145.119)" fill="#5fb0be"/><path d="M74.462,153.172,72.7,150.215H71.325v2.957H69.934V145.25h3.48A2.4,2.4,0,0,1,76,147.732a2.221,2.221,0,0,1-1.876,2.328l1.934,3.112Zm.119-5.44a1.249,1.249,0,0,0-1.355-1.259h-1.9v2.518h1.9a1.248,1.248,0,0,0,1.355-1.259Z" transform="translate(23.465 -145.116)" fill="#5fb0be"/><path d="M78.141,153.175v-3.29l-3.076-4.631h1.591l2.186,3.4,2.161-3.4h1.591l-3.063,4.628v3.29Z" transform="translate(25.956 -145.119)" fill="#5fb0be"/></g></g><path d="M44.958,2,7.01,39.95l8.569,8.562L44.957,19.13Z" transform="translate(10.158 0.019)" fill="#5fb0be"/><g transform="translate(45.716)"><path d="M66.591,37.112H83.72L46.608,0V17.13h0Z" transform="translate(-35.19)" fill="#5fb0be"/><path d="M64.677,38.77,35.295,68.153l8.563,8.564,37.95-37.95Z" transform="translate(-35.295 0.36)" fill="#5fb0be"/></g><path d="M24.724,67.65,54.107,38.262,45.543,29.7,7.6,67.65Z" transform="translate(10.164 0.276)" fill="#8dc63f"/><g transform="translate(15.745 58.519)"><path d="M44.365,104.493l37.95-37.95L73.752,57.98,44.365,87.371Z" transform="translate(-5.24 -57.98)" fill="#8dc63f"/><path d="M42.707,89.284,22.723,69.3H5.6l37.111,37.111Z" transform="translate(-5.6 -57.875)" fill="#8dc63f"/></g></g></svg>